<svg width="24" height="24" viewBox="0 0 24 24" fill="none" xmlns="http://www.w3.org/2000/svg">
<path d="M19.75 10.0001C19.75 9.80116 19.671 9.61039 19.5303 9.46974C19.3897 9.32909 19.1989 9.25007 19 9.25007C18.8011 9.25007 18.6103 9.32909 18.4697 9.46974C18.329 9.61039 18.25 9.80116 18.25 10.0001H19.75ZM5.75 10.0001C5.75 9.80116 5.67098 9.61039 5.53033 9.46974C5.38968 9.32909 5.19891 9.25007 5 9.25007C4.80109 9.25007 4.61032 9.32909 4.46967 9.46974C4.32902 9.61039 4.25 9.80116 4.25 10.0001H5.75ZM20.47 12.5301C20.5387 12.6038 20.6215 12.6629 20.7135 12.7039C20.8055 12.7448 20.9048 12.7669 21.0055 12.7687C21.1062 12.7704 21.2062 12.7519 21.2996 12.7142C21.393 12.6765 21.4778 12.6203 21.549 12.5491C21.6203 12.4779 21.6764 12.3931 21.7141 12.2997C21.7518 12.2063 21.7704 12.1063 21.7686 12.0056C21.7668 11.9048 21.7448 11.8055 21.7038 11.7135C21.6628 11.6215 21.6037 11.5387 21.53 11.4701L20.47 12.5301ZM12 3.00007L12.53 2.47007C12.3894 2.32962 12.1988 2.25073 12 2.25073C11.8013 2.25073 11.6106 2.32962 11.47 2.47007L12 3.00007ZM2.47 11.4701C2.39631 11.5387 2.33721 11.6215 2.29622 11.7135C2.25523 11.8055 2.23319 11.9048 2.23141 12.0056C2.22963 12.1063 2.24816 12.2063 2.28588 12.2997C2.3236 12.3931 2.37974 12.4779 2.45096 12.5491C2.52218 12.6203 2.60702 12.6765 2.7004 12.7142C2.79379 12.7519 2.89382 12.7704 2.99452 12.7687C3.09523 12.7669 3.19454 12.7448 3.28654 12.7039C3.37854 12.6629 3.46134 12.6038 3.53 12.5301L2.47 11.4701ZM7 21.7501H17V20.2501H7V21.7501ZM19.75 19.0001V10.0001H18.25V19.0001H19.75ZM5.75 19.0001V10.0001H4.25V19.0001H5.75ZM21.53 11.4701L12.53 2.47007L11.47 3.53007L20.47 12.5301L21.53 11.4701ZM11.47 2.47007L2.47 11.4701L3.53 12.5301L12.53 3.53007L11.47 2.47007ZM17 21.7501C17.7293 21.7501 18.4288 21.4603 18.9445 20.9446C19.4603 20.4289 19.75 19.7294 19.75 19.0001H18.25C18.25 19.6901 17.69 20.2501 17 20.2501V21.7501ZM7 20.2501C6.31 20.2501 5.75 19.6901 5.75 19.0001H4.25C4.25 19.7294 4.53973 20.4289 5.05546 20.9446C5.57118 21.4603 6.27066 21.7501 7 21.7501V20.2501Z" fill="white"/>
</svg>
