<svg width="24" height="24" viewBox="0 0 24 24" fill="none" xmlns="http://www.w3.org/2000/svg">
<path d="M19.75 10.0001C19.75 9.80116 19.671 9.61039 19.5304 9.46974C19.3897 9.32909 19.1989 9.25007 19 9.25007C18.8011 9.25007 18.6104 9.32909 18.4697 9.46974C18.3291 9.61039 18.25 9.80116 18.25 10.0001H19.75ZM5.75003 10.0001C5.75003 9.80116 5.67101 9.61039 5.53036 9.46974C5.38971 9.32909 5.19894 9.25007 5.00003 9.25007C4.80112 9.25007 4.61035 9.32909 4.4697 9.46974C4.32905 9.61039 4.25003 9.80116 4.25003 10.0001H5.75003ZM20.47 12.5301C20.5387 12.6038 20.6215 12.6629 20.7135 12.7039C20.8055 12.7448 20.9048 12.7669 21.0055 12.7687C21.1062 12.7704 21.2062 12.7519 21.2996 12.7142C21.393 12.6765 21.4779 12.6203 21.5491 12.5491C21.6203 12.4779 21.6764 12.3931 21.7142 12.2997C21.7519 12.2063 21.7704 12.1063 21.7686 12.0056C21.7668 11.9048 21.7448 11.8055 21.7038 11.7135C21.6628 11.6215 21.6037 11.5387 21.53 11.4701L20.47 12.5301ZM12 3.00007L12.53 2.47007C12.3894 2.32962 12.1988 2.25073 12 2.25073C11.8013 2.25073 11.6107 2.32962 11.47 2.47007L12 3.00007ZM2.47003 11.4701C2.39634 11.5387 2.33724 11.6215 2.29625 11.7135C2.25526 11.8055 2.23322 11.9048 2.23144 12.0056C2.22966 12.1063 2.24819 12.2063 2.28591 12.2997C2.32363 12.3931 2.37977 12.4779 2.45099 12.5491C2.52221 12.6203 2.60705 12.6765 2.70043 12.7142C2.79382 12.7519 2.89385 12.7704 2.99455 12.7687C3.09526 12.7669 3.19457 12.7448 3.28657 12.7039C3.37857 12.6629 3.46137 12.6038 3.53003 12.5301L2.47003 11.4701ZM7.00003 21.7501H17L18.4697 10.0001L12 3.53007L5.50012 9.5L7.00003 21.7501ZM19.75 19.0001V10.0001H18.25V19.0001H19.75ZM5.75003 19.0001V10.0001H4.25003V19.0001H5.75003ZM21.53 11.4701L12.53 2.47007L11.47 3.53007L20.47 12.5301L21.53 11.4701ZM11.47 2.47007L2.47003 11.4701L3.53003 12.5301L12.53 3.53007L11.47 2.47007ZM17 21.7501C17.7294 21.7501 18.4289 21.4603 18.9446 20.9446C19.4603 20.4289 19.75 19.7294 19.75 19.0001H18.25C18.25 19.6901 19.1597 10.0001 18.4697 10.0001L17 21.7501ZM5.50012 9.5C4.81012 9.5 5.75003 19.6901 5.75003 19.0001H4.25003C4.25003 19.7294 4.53976 20.4289 5.05549 20.9446C5.57121 21.4603 6.27069 21.7501 7.00003 21.7501L5.50012 9.5Z" fill="white"/>
</svg>
