<svg width="24" height="24" viewBox="0 0 24 24" fill="none" xmlns="http://www.w3.org/2000/svg">
<path d="M6.42901 2.41307C6.55508 2.2626 6.61714 2.06869 6.60184 1.87298C6.58655 1.67727 6.49514 1.49535 6.34722 1.36628C6.19931 1.23722 6.00668 1.17129 5.8107 1.18266C5.61472 1.19402 5.43101 1.28177 5.29901 1.42707L4.00701 2.90707C3.27439 3.74664 2.86024 4.81704 2.83701 5.93107L2.78001 8.65007C2.77797 8.74856 2.79535 8.84649 2.83117 8.93826C2.86698 9.03004 2.92051 9.11386 2.98872 9.18494C3.05692 9.25602 3.13846 9.31298 3.22867 9.35255C3.31889 9.39212 3.41601 9.41354 3.51451 9.41557C3.613 9.41761 3.71093 9.40022 3.8027 9.36441C3.89447 9.3286 3.97829 9.27507 4.04938 9.20686C4.12046 9.13866 4.17741 9.05712 4.21698 8.9669C4.25656 8.87669 4.27797 8.77956 4.28001 8.68107L4.33601 5.96307C4.35205 5.2008 4.63558 4.46843 5.13701 3.89407L6.42901 2.41307Z" fill="#1D1D1D"/>
<path fill-rule="evenodd" clip-rule="evenodd" d="M6.237 7.7C6.30415 6.63014 6.77651 5.62608 7.55792 4.89224C8.33932 4.15839 9.37103 3.74993 10.443 3.75H11V3C11 2.73478 11.1054 2.48043 11.2929 2.29289C11.4804 2.10536 11.7348 2 12 2C12.2652 2 12.5196 2.10536 12.7071 2.29289C12.8946 2.48043 13 2.73478 13 3V3.75H13.557C14.629 3.74993 15.6607 4.15839 16.4421 4.89224C17.2235 5.62608 17.6958 6.63014 17.763 7.7L17.984 11.234C18.0682 12.5815 18.5206 13.88 19.292 14.988C19.4514 15.2171 19.5487 15.4835 19.5747 15.7613C19.6006 16.0392 19.5541 16.319 19.4399 16.5736C19.3256 16.8281 19.1474 17.0488 18.9226 17.2142C18.6978 17.3795 18.4341 17.4838 18.157 17.517L14.75 17.925V19C14.75 19.7293 14.4603 20.4288 13.9445 20.9445C13.4288 21.4603 12.7293 21.75 12 21.75C11.2707 21.75 10.5712 21.4603 10.0555 20.9445C9.53973 20.4288 9.25 19.7293 9.25 19V17.925L5.843 17.516C5.56609 17.4827 5.3025 17.3784 5.07784 17.2131C4.85318 17.0478 4.67508 16.8273 4.56085 16.5729C4.44662 16.3184 4.40013 16.0388 4.42592 15.7611C4.4517 15.4834 4.54887 15.2171 4.708 14.988C5.4793 13.8799 5.93172 12.5814 6.016 11.234L6.237 7.7ZM10.443 5.25C9.75257 5.24992 9.08807 5.51297 8.58477 5.98561C8.08148 6.45825 7.77724 7.10493 7.734 7.794L7.514 11.328C7.41234 12.949 6.86791 14.511 5.94 15.844C5.92846 15.8606 5.92141 15.8798 5.91953 15.8999C5.91765 15.92 5.921 15.9403 5.92925 15.9587C5.9375 15.9771 5.95038 15.9931 5.96663 16.005C5.98289 16.017 6.00196 16.0246 6.022 16.027L9.759 16.476C11.248 16.654 12.752 16.654 14.241 16.476L17.978 16.027C17.998 16.0246 18.0171 16.017 18.0334 16.005C18.0496 15.9931 18.0625 15.9771 18.0707 15.9587C18.079 15.9403 18.0823 15.92 18.0805 15.8999C18.0786 15.8798 18.0715 15.8606 18.06 15.844C17.1324 14.5109 16.5883 12.9489 16.487 11.328L16.266 7.794C16.2227 7.10493 15.9185 6.45825 15.4152 5.98561C14.9119 5.51297 14.2474 5.24992 13.557 5.25H10.443ZM12 20.25C11.31 20.25 10.75 19.69 10.75 19V18.25H13.25V19C13.25 19.69 12.69 20.25 12 20.25Z" fill="#1D1D1D"/>
<path d="M17.643 1.35495C17.4932 1.48573 17.4014 1.67065 17.3879 1.86905C17.3744 2.06745 17.4403 2.26309 17.571 2.41295L18.863 3.89295C19.3643 4.46772 19.6475 5.20046 19.663 5.96295L19.72 8.67996C19.7241 8.87887 19.8071 9.068 19.9506 9.20575C20.0942 9.34349 20.2866 9.41857 20.4855 9.41446C20.6844 9.41034 20.8735 9.32738 21.0113 9.18383C21.149 9.04027 21.2241 8.84787 21.22 8.64895L21.163 5.93095C21.1398 4.81693 20.7256 3.74652 19.993 2.90695L18.701 1.42695C18.5702 1.27714 18.3853 1.1854 18.1869 1.1719C17.9885 1.1584 17.7929 1.22424 17.643 1.35495Z" fill="#1D1D1D"/>
</svg>
