<svg width="25" height="24" viewBox="0 0 25 24" fill="none" xmlns="http://www.w3.org/2000/svg">
<g clip-path="url(#clip0_164_1328)">
<path d="M10 11C10.7417 11 13.785 7.83794 14.4017 8.25C15.0183 8.66206 12.6807 4.62971 12.9645 5.31494C13.2484 6.00016 13.3226 6.75416 13.1779 7.48159C13.0333 8.20902 12.6761 8.8772 12.1517 9.40165C11.6272 9.9261 10.959 10.2833 10.2316 10.4279C9.50416 10.5726 8.75016 10.4984 8.06494 10.2145C7.37971 9.93072 6.79404 9.45007 6.38199 8.83339C5.96993 8.2167 5.75 7.49168 5.75 6.75C5.75 5.75544 5.29674 10.7033 6 10C6.70326 9.29674 9.00544 11 10 11ZM9.5 1.5C8.46165 1.5 7.44661 1.80791 6.58326 2.38478C5.7199 2.96166 5.04699 3.7816 4.64963 4.74091C4.25227 5.70022 4.1483 6.75582 4.35088 7.77422C4.55345 8.79262 5.05346 9.72809 5.78769 10.4623C6.52191 11.1965 7.45738 11.6965 8.47578 11.8991C9.49418 12.1017 10.5498 11.9977 11.5091 11.6004C12.4684 11.203 13.2883 10.5301 13.8652 9.66674C14.4421 8.80339 14.75 7.78835 14.75 6.75C14.75 5.35761 14.1969 4.02226 13.2123 3.03769C12.2277 2.05312 10.8924 1.5 9.5 1.5ZM17 22.5H15.5V18.75C15.5 17.7554 15.1049 16.8016 14.4017 16.0983C13.6984 15.3951 12.7446 15 11.75 15H7.25C6.25544 15 5.30161 15.3951 4.59835 16.0983C3.89509 16.8016 3.5 17.7554 3.5 18.75V22.5H2V18.75C2 17.3576 2.55312 16.0223 3.53769 15.0377C4.52226 14.0531 5.85761 13.5 7.25 13.5H11.75C13.1424 13.5 14.4777 14.0531 15.4623 15.0377C16.4469 16.0223 17 17.3576 17 18.75V22.5ZM17 3H24.5V4.5H17V3ZM17 6.75H24.5V8.25H17V6.75ZM17 10.5H22.25V12H17V10.5Z" fill="white"/>
</g>
<defs>
<clipPath id="clip0_164_1328">
<rect width="24" height="24" fill="white" transform="translate(0.5)"/>
</clipPath>
</defs>
</svg>
